<svg fill="none" height="100%" width="100%" viewBox="0 0 500 394" xmlns:xlink="http://www.w3.org/1999/xlink" xmlns="http://www.w3.org/2000/svg"><defs><linearGradient id="i0" gradientUnits="userSpaceOnUse" spreadMethod="pad" x2="-83" y2="-68" x1="17.5" y1="10.5"><stop offset="0%" stop-color="#2caed8" /><stop offset="50%" stop-color="#2caed8" /><stop offset="100%" stop-color="#144a74" /></linearGradient><linearGradient id="i1" gradientUnits="userSpaceOnUse" spreadMethod="pad" x2="8" y2="-21" x1="-25" y1="38"><stop offset="0%" stop-color="#ffffff" /><stop offset="50%" stop-color="#2caed8" /><stop offset="100%" stop-color="#2caed8" /></linearGradient><linearGradient id="i2" gradientUnits="userSpaceOnUse" spreadMethod="pad" x2="-8" y2="-34.5" x1="14.5" y1="39"><stop offset="0%" stop-color="#ffffff" /><stop offset="50%" stop-color="#2caed8" /><stop offset="100%" stop-color="#2caed8" /></linearGradient><linearGradient id="i3" gradientUnits="userSpaceOnUse" spreadMethod="pad" x2="19" y2="0.5" x1="-50" y1="0.5"><stop offset="0%" stop-color="#ffffff" /><stop offset="50%" stop-color="#2caed8" /><stop offset="100%" stop-color="#2caed8" /></linearGradient><linearGradient id="i4" gradientUnits="userSpaceOnUse" spreadMethod="pad" x2="7.75" y2="1.75" x1="-15" y1="1.75"><stop offset="0%" stop-color="#ffffff" /><stop offset="50%" stop-color="#2caed8" /><stop offset="100%" stop-color="#2caed8" /></linearGradient><linearGradient id="i5" gradientUnits="userSpaceOnUse" spreadMethod="pad" x2="68.5" y2="-31.5" x1="-65" y1="44.5"><stop offset="0%" stop-color="#ffffff" /><stop offset="50%" stop-color="#2caed8" /><stop offset="100%" stop-color="#2caed8" /></linearGradient><linearGradient id="i6" gradientUnits="userSpaceOnUse" spreadMethod="pad" x2="-0.5" y2="-47.5" x1="0.5" y1="7"><stop offset="0%" stop-color="#1b5b83" /><stop offset="50%" stop-color="#1b5b83" /><stop offset="100%" stop-color="#2caed8" /></linearGradient><linearGradient id="i7" gradientUnits="userSpaceOnUse" spreadMethod="pad" x2="1" y2="-39" x1="0.5" y1="14"><stop offset="0%" stop-color="#1b5b83" /><stop offset="50%" stop-color="#2f74a5" /><stop offset="100%" stop-color="#144a74" /></linearGradient><linearGradient id="i8" gradientUnits="userSpaceOnUse" spreadMethod="pad" x2="1" y2="-39" x1="0.5" y1="14"><stop offset="0%" stop-color="#1b5b83" /><stop offset="50%" stop-color="#2f74a5" /><stop offset="100%" stop-color="#144a74" /></linearGradient></defs><g id="i9"><g transform="translate(271.609,308.915)"><animateTransform repeatCount="indefinite" type="translate" attributeName="transform" dur="2.333s" begin="0s" calcMode="spline" values="271.609 308.915; 271.609 278.915; 271.609 308.915; 271.609 308.915" keyTimes="0; 0.335714; 0.992857; 1" keySplines="0.167 0.167 0.667 1; 0.333 0 0.667 1; 0 0 1 1" fill="freeze" /><g transform="rotate(0)"><animateTransform repeatCount="indefinite" type="rotate" attributeName="transform" dur="2.333s" begin="0s" calcMode="spline" values="0; 0; -6; -6; 0; 0" keyTimes="0; 0.328572; 0.571428; 0.785714; 0.964286; 1" keySplines="0 0 1 1; 0.333 0 0.667 1; 0.333 0 0.667 1; 0.333 0 0.667 1; 0 0 1 1" fill="freeze" /><g transform="scale(1,1) translate(-271.609,-361.915)"><g id="i10"><g transform="translate(226.431,302)"><g transform="rotate(-105)"><animateTransform repeatCount="indefinite" type="rotate" attributeName="transform" dur="2.333s" begin="0s" calcMode="spline" values="-105; -105; 0; 0; 7; -5; 0; -105; -105" keyTimes="0; 0.014286; 0.192857; 0.442857; 0.55; 0.721429; 0.85; 0.992857; 1" keySplines="0 0 1 1; 0.333 0 0.667 1; 0.333 0 0.667 1; 0.333 0 0.667 1; 0.333 0 0.667 1; 0.333 0 0.667 1; 0.333 0 0.667 1; 0 0 1 1" fill="freeze" /><g transform="scale(1,1) translate(-226.431,-302)"><g id="i11" transform="matrix(1,0,0,1,206.004,299.419)"><path fill="url(#i0)" fill-rule="evenodd" d="M-22.841,-16.9C-24.178,-16.302,-26.042,-15.439,-26.641,-13.7C-28.106,-9.457,-20.836,-3.483,-18.127,-1.257C-5.701,8.956,15.996,18.294,23.881,10.661C25.179,9.404,27.24,6.548,27.624,2.846C28.106,-1.801,25.701,-5.42,25.229,-6.128C21.128,-12.299,15.689,-10.533,-7.327,-16.838C-9.442,-17.417,-12.544,-18.295,-15.982,-18.295C-18.187,-18.295,-20.531,-17.934,-22.841,-16.9Z" /></g></g></g></g></g></g></g></g></g><g id="i9"><g transform="translate(271.609,308.915)"><animateTransform repeatCount="indefinite" type="translate" attributeName="transform" dur="2.333s" begin="0s" calcMode="spline" values="271.609 308.915; 271.609 278.915; 271.609 308.915; 271.609 308.915" keyTimes="0; 0.335714; 0.992857; 1" keySplines="0.167 0.167 0.667 1; 0.333 0 0.667 1; 0 0 1 1" fill="freeze" /><g transform="rotate(0)"><animateTransform repeatCount="indefinite" type="rotate" attributeName="transform" dur="2.333s" begin="0s" calcMode="spline" values="0; 0; -6; -6; 0; 0" keyTimes="0; 0.328572; 0.571428; 0.785714; 0.964286; 1" keySplines="0 0 1 1; 0.333 0 0.667 1; 0.333 0 0.667 1; 0.333 0 0.667 1; 0 0 1 1" fill="freeze" /><g transform="scale(1,1) translate(-271.609,-361.915)"><g id="i11" transform="matrix(1,0,0,1,271.104,326.438)"><path fill="url(#i1)" fill-rule="evenodd" d="M30.215,-39.161C30.215,-39.161,0.014,-39.04,0.014,-39.04C0.014,-39.04,-30.747,-38.913,-30.747,-38.913C-37.131,-38.886,-43.303,-36.156,-47.299,-31.177C-49.632,-28.275,-50.945,-25.098,-51.139,-21.855C-51.166,-21.331,-51.157,-20.808,-51.129,-20.284C-51.028,-18.475,-50.606,-17.124,-50.394,-16.5C-41.521,10.614,-37.636,19.754,-27.532,30.747C-23.867,34.743,-18.301,36.553,-16.51,37.177C-10.904,39.16,-5.861,39.136,-2.106,39.111C-1.475,39.107,-0.881,39.102,-0.325,39.107C-0.325,39.107,0.345,39.107,0.345,39.107C0.898,39.102,1.492,39.107,2.122,39.111C5.873,39.136,10.922,39.16,16.529,37.177C18.321,36.553,23.877,34.743,27.551,30.747C29.204,28.947,30.693,27.202,32.052,25.411C33.091,24.07,34.054,22.701,34.973,21.277C40.291,13.03,44.084,2.836,50.414,-16.5C50.634,-17.151,51.084,-18.604,51.158,-20.533C51.166,-20.726,51.166,-20.927,51.166,-21.138C51.166,-21.58,51.139,-22.011,51.102,-22.443C51.066,-22.829,51.011,-23.223,50.946,-23.609C50.478,-26.328,49.201,-28.965,47.199,-31.409C43.077,-36.426,36.798,-39.161,30.311,-39.161C30.279,-39.161,30.247,-39.161,30.215,-39.161Z" /></g></g></g></g></g><g id="i12"><g transform="translate(157.694,179.638)"><animateTransform repeatCount="indefinite" type="translate" attributeName="transform" dur="2.333s" begin="0s" calcMode="spline" values="157.694 179.638; 157.694 179.638; 157.694 196.638; 157.694 196.638" keyTimes="0; 0.421428; 0.721428; 1" keySplines="0 0 1 1; 0.167 0.167 0.667 1; 0 0 1 1" fill="freeze" /><g transform="rotate(-14)"><animateTransform repeatCount="indefinite" type="rotate" attributeName="transform" dur="2.333s" begin="0s" calcMode="spline" values="-14; -14; 0; -4; 0; -14; -14" keyTimes="0; 0.214286; 0.321429; 0.421428; 0.721429; 0.835714; 1" keySplines="0 0 1 1; 0.333 0 0.667 1; 0.333 0 0.667 1; 0.333 0 0.667 1; 0.333 0 0.667 1; 0 0 1 1" fill="freeze" /><g transform="scale(0,0)"><animateTransform repeatCount="indefinite" type="scale" attributeName="transform" dur="2.333s" begin="0s" calcMode="spline" values="0 0; 0 0; 0.87 0.87; 0.87 0.87; 0 0; 0 0" keyTimes="0; 0.214286; 0.321429; 0.721429; 0.835714; 1" keySplines="0 0 1 1; 0.333 0 0.667 1; 0.333 0 0.667 1; 0.333 0 0.667 1; 0 0 1 1" fill="freeze" /><g transform="translate(-172.52,-232.973)"><g id="i13" transform="matrix(1,0,0,1,147.32,217.373)"><path fill="#2caed8" fill-rule="evenodd" d="M-18.676,-3.163C-9.49,10.826,27.861,17.277,27.861,17.277C16.227,10.679,14.154,-17.277,14.154,-17.277C14.154,-17.277,-27.861,-17.153,-18.676,-3.163Z" /></g><g id="i14" transform="matrix(1,0,0,1,100.02,166.753)"><path fill="#2caed8" fill-rule="evenodd" d="M-33.53,-47.457C-59.632,-47.457,-80.987,-26.101,-80.987,0C-80.987,26.101,-59.632,47.457,-33.53,47.457C-33.53,47.457,33.53,47.457,33.53,47.457C59.631,47.457,80.987,26.101,80.987,0C80.987,-26.101,59.631,-47.457,33.53,-47.457C33.53,-47.457,-33.53,-47.457,-33.53,-47.457Z" /></g><g id="i15" transform="matrix(1,0,0,1,152.898,139.16)"><path fill="#ffffff" d="M22.153,15.829C21.099,16.612,13.759,2.403,-4.57,-7.334C-14.882,-12.813,-23.294,-14.019,-23.075,-15.014C-22.817,-16.182,-10.796,-16.612,0.102,-11.16C16.47,-2.971,23.294,14.982,22.153,15.829Z" /></g><g id="i16" transform="matrix(1,0,0,1,176.428,160.464)"><path fill="#ffffff" d="M1.255,0C1.255,0.693,0.692,1.255,0,1.255C-0.694,1.255,-1.255,0.693,-1.255,0C-1.255,-0.693,-0.694,-1.255,0,-1.255C0.692,-1.255,1.255,-0.693,1.255,0Z" /></g><g id="i17" transform="matrix(1,0,0,1,78.205,124.359)"><path fill="#ffffff" d="M8.804,0C8.804,1.104,4.862,2,-0.001,2C-4.863,2,-8.803,1.104,-8.803,0C-8.803,-1.104,-4.863,-2,-0.001,-2C4.862,-2,8.804,-1.104,8.804,0Z" /></g><g id="i18" transform="matrix(1,0,0,1,95.395,124.359)"><path fill="#ffffff" d="M2.385,0C2.385,0.598,1.318,1.083,0.001,1.083C-1.316,1.083,-2.385,0.598,-2.385,0C-2.385,-0.598,-1.316,-1.083,0.001,-1.083C1.318,-1.083,2.385,-0.598,2.385,0Z" /></g><g id="i19" transform="matrix(1,0,0,1,51.25,159.688)"><path fill="#ffffff" d="M0.374,-0.021C0.547,3.046,0.521,5.542,0.314,5.554C0.107,5.565,-0.201,3.088,-0.374,0.021C-0.547,-3.046,-0.521,-5.542,-0.314,-5.554C-0.107,-5.565,0.201,-3.088,0.374,-0.021Z" /></g><g id="i11" transform="matrix(1,0,0,1,162.835,218.073)"><path fill="#ffffff" d="M0.832,2.261C2.263,6.279,3.761,8.627,3.415,8.844C3.026,9.089,0.444,6.532,-1.085,3.178C-3.76,-2.693,-2.322,-9.053,-1.751,-9.072C-1.271,-9.089,-1.615,-4.612,0.832,2.261Z" /></g></g></g></g></g></g><g id="i9"><g transform="translate(271.609,308.915)"><animateTransform repeatCount="indefinite" type="translate" attributeName="transform" dur="2.333s" begin="0s" calcMode="spline" values="271.609 308.915; 271.609 278.915; 271.609 308.915; 271.609 308.915" keyTimes="0; 0.335714; 0.992857; 1" keySplines="0.167 0.167 0.667 1; 0.333 0 0.667 1; 0 0 1 1" fill="freeze" /><g transform="rotate(0)"><animateTransform repeatCount="indefinite" type="rotate" attributeName="transform" dur="2.333s" begin="0s" calcMode="spline" values="0; 0; -6; -6; 0; 0" keyTimes="0; 0.328572; 0.571428; 0.785714; 0.964286; 1" keySplines="0 0 1 1; 0.333 0 0.667 1; 0.333 0 0.667 1; 0.333 0 0.667 1; 0 0 1 1" fill="freeze" /><g transform="scale(1,1) translate(-271.609,-361.915)"><g id="i20"><g transform="translate(313.323,299.398)"><g transform="rotate(0)"><animateTransform repeatCount="indefinite" type="rotate" attributeName="transform" dur="2.333s" begin="0s" calcMode="spline" values="0; 0; 22; 0; 22; 0; 22; 0; 0" keyTimes="0; 0.214286; 0.35; 0.471429; 0.607143; 0.714286; 0.85; 0.971429; 1" keySplines="0 0 1 1; 0.333 0 0.667 1; 0.333 0 0.667 1; 0.333 0 0.667 1; 0.333 0 0.667 1; 0.333 0 0.667 1; 0.333 0 0.667 1; 0 0 1 1" fill="freeze" /><g transform="scale(1,1) translate(-313.323,-299.398)"><g transform="matrix(1,0,0,1,0,0)" id="i21"><g id="i11" transform="matrix(1,0,0,1,300.171,325.18)"><path fill="#2caed8" fill-rule="evenodd" d="M-1.139,-23.473C-5.906,-17.796,-2.673,-13.085,-2.222,10.779C-2.159,14.38,-2.113,20.754,2.095,25.677C2.36,25.99,2.654,26.33,2.985,26.669C4.024,25.328,4.987,23.959,5.906,22.535C5.888,22.5,5.86,22.472,5.833,22.444C1.635,17.512,1.58,11.137,1.515,7.537C1.065,-16.254,-2.14,-21.011,2.562,-26.669C0.487,-25.41,-0.791,-23.895,-1.139,-23.473Z" /></g></g></g></g></g></g></g></g></g></g><g id="i9"><g transform="translate(271.609,308.915)"><animateTransform repeatCount="indefinite" type="translate" attributeName="transform" dur="2.333s" begin="0s" calcMode="spline" values="271.609 308.915; 271.609 278.915; 271.609 308.915; 271.609 308.915" keyTimes="0; 0.335714; 0.992857; 1" keySplines="0.167 0.167 0.667 1; 0.333 0 0.667 1; 0 0 1 1" fill="freeze" /><g transform="rotate(0)"><animateTransform repeatCount="indefinite" type="rotate" attributeName="transform" dur="2.333s" begin="0s" calcMode="spline" values="0; 0; -6; -6; 0; 0" keyTimes="0; 0.328572; 0.571428; 0.785714; 0.964286; 1" keySplines="0 0 1 1; 0.333 0 0.667 1; 0.333 0 0.667 1; 0.333 0 0.667 1; 0 0 1 1" fill="freeze" /><g transform="scale(1,1) translate(-271.609,-361.915)"><g id="i20"><g transform="translate(313.323,299.398)"><g transform="rotate(0)"><animateTransform repeatCount="indefinite" type="rotate" attributeName="transform" dur="2.333s" begin="0s" calcMode="spline" values="0; 0; 22; 0; 22; 0; 22; 0; 0" keyTimes="0; 0.214286; 0.35; 0.471429; 0.607143; 0.714286; 0.85; 0.971429; 1" keySplines="0 0 1 1; 0.333 0 0.667 1; 0.333 0 0.667 1; 0.333 0 0.667 1; 0.333 0 0.667 1; 0.333 0 0.667 1; 0.333 0 0.667 1; 0 0 1 1" fill="freeze" /><g transform="scale(1,1) translate(-313.323,-299.398)"><g id="i18" transform="matrix(1,0,0,1,313.409,322)"><path fill="url(#i2)" fill-rule="evenodd" d="M-2.704,-28.367C-7.296,-27.518,-10.091,-24.189,-10.637,-23.536C-15.399,-17.86,-12.17,-13.142,-11.721,10.72C-11.653,14.317,-11.608,20.695,-7.402,25.62C-6.451,26.733,-5.097,28.277,-3.26,28.362C1.225,28.568,4.904,19.911,6.275,16.682C12.564,1.879,15.398,-21.572,5.849,-26.981C4.604,-27.687,2.262,-28.569,-0.478,-28.569C-1.197,-28.569,-1.943,-28.508,-2.704,-28.367Z" /></g><g id="i19" transform="matrix(1,0,0,1,319.733,307.099)"><path fill="#ffffff" d="M-0.191,5.752C-0.326,3.188,-0.807,1.302,-1.769,-2.47C-3.027,-7.403,-4.605,-9.809,-3.58,-10.761C-2.913,-11.381,-1.598,-10.962,-1.301,-10.867C3.208,-9.429,4.605,-0.967,4.412,4.328C4.292,7.57,3.5,11.195,2.313,11.356C2.125,11.381,1.66,11.356,1.327,11.062C0.001,9.89,-0.088,7.7,-0.191,5.752Z" /></g><g id="i11" transform="matrix(1,0,0,1,321.703,321.899)"><path fill="#ffffff" d="M0.936,-0.001C0.936,0.516,0.517,0.936,0,0.936C-0.517,0.936,-0.936,0.516,-0.936,-0.001C-0.936,-0.518,-0.517,-0.937,0,-0.937C0.517,-0.937,0.936,-0.518,0.936,-0.001Z" /></g></g></g></g></g></g></g></g></g><g id="i9"><g transform="translate(271.609,308.915)"><animateTransform repeatCount="indefinite" type="translate" attributeName="transform" dur="2.333s" begin="0s" calcMode="spline" values="271.609 308.915; 271.609 278.915; 271.609 308.915; 271.609 308.915" keyTimes="0; 0.335714; 0.992857; 1" keySplines="0.167 0.167 0.667 1; 0.333 0 0.667 1; 0 0 1 1" fill="freeze" /><g transform="rotate(0)"><animateTransform repeatCount="indefinite" type="rotate" attributeName="transform" dur="2.333s" begin="0s" calcMode="spline" values="0; 0; -6; -6; 0; 0" keyTimes="0; 0.328572; 0.571428; 0.785714; 0.964286; 1" keySplines="0 0 1 1; 0.333 0 0.667 1; 0.333 0 0.667 1; 0.333 0 0.667 1; 0 0 1 1" fill="freeze" /><g transform="scale(1,1) translate(-271.609,-361.915)"><g id="i22"><g transform="translate(267.293,280.579)"><g transform="rotate(0)"><animateTransform repeatCount="indefinite" type="rotate" attributeName="transform" dur="2.333s" begin="0s" calcMode="spline" values="0; 0; -4; 5; -4; 5; 0; 0" keyTimes="0; 0.271428; 0.392857; 0.528571; 0.678571; 0.807143; 0.935714; 1" keySplines="0 0 1 1; 0.333 0 0.667 1; 0.333 0 0.667 1; 0.333 0 0.667 1; 0.333 0 0.667 1; 0.333 0 0.667 1; 0 0 1 1" fill="freeze" /><g transform="scale(1,1) translate(-267.293,-280.579)"><g transform="matrix(1,0,0,1,0,0)" id="i23"><g id="i24" transform="matrix(1,0,0,1,267.293,143.943)"><path d="" /></g><g id="i25" transform="matrix(1,0,0,1,267.293,167.212)"><path fill="url(#i3)" fill-rule="evenodd" d="M-16.917,-10.563C-19.412,-10.563,-21.434,-8.541,-21.434,-6.046C-21.434,-6.046,-21.434,6.047,-21.434,6.047C-21.434,8.541,-19.412,10.563,-16.917,10.563C-16.917,10.563,16.917,10.563,16.917,10.563C19.411,10.563,21.434,8.541,21.434,6.047C21.434,6.047,21.434,-6.046,21.434,-6.046C21.434,-8.541,19.411,-10.563,16.917,-10.563C16.917,-10.563,-16.917,-10.563,-16.917,-10.563Z" /></g><g id="i15" transform="matrix(1,0,0,1,267.292,125.726)"><path fill="url(#i4)" fill-rule="evenodd" d="M-6.277,0.001C-6.277,3.467,-3.466,6.277,0.001,6.277C3.467,6.277,6.277,3.467,6.277,0.001C6.277,-3.466,3.467,-6.277,0.001,-6.277C-3.466,-6.277,-6.277,-3.466,-6.277,0.001Z" /></g><g id="i16" transform="matrix(1,0,0,1,269.742,123.276)"><path fill="#ffffff" d="M1.914,0C1.914,1.057,1.057,1.914,0,1.914C-1.057,1.914,-1.914,1.057,-1.914,0C-1.914,-1.057,-1.057,-1.914,0,-1.914C1.057,-1.914,1.914,-1.057,1.914,0Z" /></g><g id="i11" transform="matrix(1,0,0,1,278.003,159.804)"><path fill="#ffffff" d="M9.483,3.099C9.327,3.121,9.227,2.204,8.463,0.786C8.463,0.786,8.106,0.124,7.698,-0.438C6.382,-2.248,1.925,-2.208,1.575,-2.205C-5.369,-2.144,-9.831,-2.584,-9.83,-2.543C-9.829,-2.507,-6.574,-2.574,-4.188,-2.622C2.544,-2.759,6.553,-3.121,8.272,-1.318C8.985,-0.57,9.343,0.404,9.343,0.404C9.831,1.726,9.669,3.072,9.483,3.099Z" /></g></g></g></g></g></g></g></g></g></g><g id="i9"><g transform="translate(271.609,308.915)"><animateTransform repeatCount="indefinite" type="translate" attributeName="transform" dur="2.333s" begin="0s" calcMode="spline" values="271.609 308.915; 271.609 278.915; 271.609 308.915; 271.609 308.915" keyTimes="0; 0.335714; 0.992857; 1" keySplines="0.167 0.167 0.667 1; 0.333 0 0.667 1; 0 0 1 1" fill="freeze" /><g transform="rotate(0)"><animateTransform repeatCount="indefinite" type="rotate" attributeName="transform" dur="2.333s" begin="0s" calcMode="spline" values="0; 0; -6; -6; 0; 0" keyTimes="0; 0.328572; 0.571428; 0.785714; 0.964286; 1" keySplines="0 0 1 1; 0.333 0 0.667 1; 0.333 0 0.667 1; 0.333 0 0.667 1; 0 0 1 1" fill="freeze" /><g transform="scale(1,1) translate(-271.609,-361.915)"><g id="i22"><g transform="translate(267.293,280.579)"><g transform="rotate(0)"><animateTransform repeatCount="indefinite" type="rotate" attributeName="transform" dur="2.333s" begin="0s" calcMode="spline" values="0; 0; -4; 5; -4; 5; 0; 0" keyTimes="0; 0.271428; 0.392857; 0.528571; 0.678571; 0.807143; 0.935714; 1" keySplines="0 0 1 1; 0.333 0 0.667 1; 0.333 0 0.667 1; 0.333 0 0.667 1; 0.333 0 0.667 1; 0.333 0 0.667 1; 0 0 1 1" fill="freeze" /><g transform="scale(1,1) translate(-267.293,-280.579)"><g id="i13" transform="matrix(1,0,0,1,267.293,225.079)"><path fill="url(#i5)" fill-rule="evenodd" d="M-13.778,-58.326C-48.383,-58.326,-76.696,-30.013,-76.696,4.593C-76.696,4.593,-76.696,22.963,-76.696,22.963C-76.696,42.412,-60.784,58.326,-41.334,58.326C-41.334,58.326,41.333,58.326,41.333,58.326C60.863,58.326,76.696,42.493,76.696,22.963C76.696,22.963,76.696,4.593,76.696,4.593C76.696,-30.013,48.383,-58.326,13.777,-58.326C13.777,-58.326,-13.778,-58.326,-13.778,-58.326Z" /></g><g id="i17" transform="matrix(1,0,0,1,312.164,184.222)"><path fill="#ffffff" d="M9.173,2.656C9.256,5.587,6.863,9.091,4.122,9.39C1.554,9.671,-0.497,7.048,-2.611,4.342C-4.696,1.675,-9.255,-5.177,-7.439,-7.115C-5.045,-9.672,8.977,-4.258,9.173,2.656Z" /></g><g id="i18" transform="matrix(1,0,0,1,297.875,173.527)"><path fill="#ffffff" d="M2.181,0C2.181,1.205,1.204,2.182,-0.001,2.182C-1.206,2.182,-2.182,1.205,-2.182,0C-2.182,-1.205,-1.206,-2.182,-0.001,-2.182C1.204,-2.182,2.181,-1.205,2.181,0Z" /></g></g></g></g></g></g></g></g></g><g id="i9"><g transform="translate(271.609,308.915)"><animateTransform repeatCount="indefinite" type="translate" attributeName="transform" dur="2.333s" begin="0s" calcMode="spline" values="271.609 308.915; 271.609 278.915; 271.609 308.915; 271.609 308.915" keyTimes="0; 0.335714; 0.992857; 1" keySplines="0.167 0.167 0.667 1; 0.333 0 0.667 1; 0 0 1 1" fill="freeze" /><g transform="rotate(0)"><animateTransform repeatCount="indefinite" type="rotate" attributeName="transform" dur="2.333s" begin="0s" calcMode="spline" values="0; 0; -6; -6; 0; 0" keyTimes="0; 0.328572; 0.571428; 0.785714; 0.964286; 1" keySplines="0 0 1 1; 0.333 0 0.667 1; 0.333 0 0.667 1; 0.333 0 0.667 1; 0 0 1 1" fill="freeze" /><g transform="scale(1,1) translate(-271.609,-361.915)"><g id="i22"><g transform="translate(267.293,280.579)"><g transform="rotate(0)"><animateTransform repeatCount="indefinite" type="rotate" attributeName="transform" dur="2.333s" begin="0s" calcMode="spline" values="0; 0; -4; 5; -4; 5; 0; 0" keyTimes="0; 0.271428; 0.392857; 0.528571; 0.678571; 0.807143; 0.935714; 1" keySplines="0 0 1 1; 0.333 0 0.667 1; 0.333 0 0.667 1; 0.333 0 0.667 1; 0.333 0 0.667 1; 0.333 0 0.667 1; 0 0 1 1" fill="freeze" /><g transform="scale(1,1) translate(-267.293,-280.579)"><g id="i26"><g transform="translate(270.849,259.046)"><g transform="scale(1,1)"><animateTransform repeatCount="indefinite" type="scale" attributeName="transform" dur="2.333s" begin="0s" calcMode="spline" values="1 1; 1 1; 1.14 1.14; 1 1; 1 1" keyTimes="0; 0.478572; 0.542857; 0.692857; 1" keySplines="0 0 1 1; 0.167 0.167 0.667 1; 0.333 0 0.833 0.833; 0 0 1 1" fill="freeze" /><g transform="translate(-270.849,-259.046)"><g id="i19" transform="matrix(1,0,0,1,270.847,254.894)"><path fill="#eefdff" d="M15.195,-1.24C15.026,0.423,13.641,1.704,11.977,1.865C11.977,1.865,-11.017,4.082,-11.017,4.082C-12.68,4.243,-14.284,3.25,-14.769,1.651C-14.984,0.941,-15.15,0.207,-15.263,-0.546C-15.294,-0.755,-15.239,-0.967,-15.109,-1.133C-14.979,-1.299,-14.787,-1.403,-14.577,-1.424C-14.577,-1.424,14.432,-4.222,14.432,-4.222C14.638,-4.242,14.844,-4.176,15.001,-4.039C15.158,-3.903,15.252,-3.709,15.26,-3.501C15.294,-2.737,15.271,-1.982,15.195,-1.24Z" /></g><g id="i11" transform="matrix(1,0,0,1,271.107,260.857)"><path fill="#2caed8" fill-rule="evenodd" d="M11.721,-4.096C11.721,-4.096,-11.278,-1.883,-11.278,-1.883C-12.849,-1.727,-14.355,-2.598,-14.935,-4.031C-12.767,2.673,-6.171,7.201,1.131,6.495C8.535,5.788,14.202,-0.073,14.936,-7.201C14.762,-5.538,13.384,-4.261,11.721,-4.096Z" /></g></g></g></g></g></g></g></g></g></g></g></g></g><g id="i9"><g transform="translate(271.609,308.915)"><animateTransform repeatCount="indefinite" type="translate" attributeName="transform" dur="2.333s" begin="0s" calcMode="spline" values="271.609 308.915; 271.609 278.915; 271.609 308.915; 271.609 308.915" keyTimes="0; 0.335714; 0.992857; 1" keySplines="0.167 0.167 0.667 1; 0.333 0 0.667 1; 0 0 1 1" fill="freeze" /><g transform="rotate(0)"><animateTransform repeatCount="indefinite" type="rotate" attributeName="transform" dur="2.333s" begin="0s" calcMode="spline" values="0; 0; -6; -6; 0; 0" keyTimes="0; 0.328572; 0.571428; 0.785714; 0.964286; 1" keySplines="0 0 1 1; 0.333 0 0.667 1; 0.333 0 0.667 1; 0.333 0 0.667 1; 0 0 1 1" fill="freeze" /><g transform="scale(1,1) translate(-271.609,-361.915)"><g id="i22"><g transform="translate(267.293,280.579)"><g transform="rotate(0)"><animateTransform repeatCount="indefinite" type="rotate" attributeName="transform" dur="2.333s" begin="0s" calcMode="spline" values="0; 0; -4; 5; -4; 5; 0; 0" keyTimes="0; 0.271428; 0.392857; 0.528571; 0.678571; 0.807143; 0.935714; 1" keySplines="0 0 1 1; 0.333 0 0.667 1; 0.333 0 0.667 1; 0.333 0 0.667 1; 0.333 0 0.667 1; 0.333 0 0.667 1; 0 0 1 1" fill="freeze" /><g transform="scale(1,1) translate(-267.293,-280.579)"><g transform="matrix(1,0,0,1,0,0)" id="i27"><g id="i14" transform="matrix(1,0,0,1,267.293,223.151)"><path fill="url(#i6)" fill-rule="evenodd" d="M-22.704,-22.465C-41.689,-21.478,-57.176,-8.33,-59.535,8.768C-59.535,8.768,-59.586,9.136,-59.586,9.136C-60.282,14.185,-57.499,19.105,-52.57,21.542C-50.562,22.534,-48.313,23.054,-46.026,23.054C-46.026,23.054,46.026,23.054,46.026,23.054C48.313,23.054,50.562,22.534,52.57,21.542C57.499,19.105,60.281,14.185,59.585,9.136C59.568,9.012,59.551,8.888,59.534,8.765C57.167,-8.398,41.566,-21.492,22.509,-22.475C16.099,-22.805,9.441,-23.007,2.551,-23.047C1.697,-23.052,0.847,-23.055,0,-23.055C-7.874,-23.055,-15.453,-22.842,-22.704,-22.465Z" /></g></g></g></g></g></g></g></g></g></g><g id="i9"><g transform="translate(271.609,308.915)"><animateTransform repeatCount="indefinite" type="translate" attributeName="transform" dur="2.333s" begin="0s" calcMode="spline" values="271.609 308.915; 271.609 278.915; 271.609 308.915; 271.609 308.915" keyTimes="0; 0.335714; 0.992857; 1" keySplines="0.167 0.167 0.667 1; 0.333 0 0.667 1; 0 0 1 1" fill="freeze" /><g transform="rotate(0)"><animateTransform repeatCount="indefinite" type="rotate" attributeName="transform" dur="2.333s" begin="0s" calcMode="spline" values="0; 0; -6; -6; 0; 0" keyTimes="0; 0.328572; 0.571428; 0.785714; 0.964286; 1" keySplines="0 0 1 1; 0.333 0 0.667 1; 0.333 0 0.667 1; 0.333 0 0.667 1; 0 0 1 1" fill="freeze" /><g transform="scale(1,1) translate(-271.609,-361.915)"><g id="i22"><g transform="translate(267.293,280.579)"><g transform="rotate(0)"><animateTransform repeatCount="indefinite" type="rotate" attributeName="transform" dur="2.333s" begin="0s" calcMode="spline" values="0; 0; -4; 5; -4; 5; 0; 0" keyTimes="0; 0.271428; 0.392857; 0.528571; 0.678571; 0.807143; 0.935714; 1" keySplines="0 0 1 1; 0.333 0 0.667 1; 0.333 0 0.667 1; 0.333 0 0.667 1; 0.333 0 0.667 1; 0.333 0 0.667 1; 0 0 1 1" fill="freeze" /><g transform="scale(1,1) translate(-267.293,-280.579)"><g transform="matrix(1,0,0,1,0,0)" id="i28"><g id="i19" transform="matrix(1,0,0,1,307.529,215.514)"><path fill="#ffffff" d="M13.497,12.012C12.797,12.506,7.917,2.566,-5.18,-6.052C-9.783,-9.082,-14.329,-11.24,-14.059,-11.868C-13.785,-12.506,-8.666,-11.32,-4.567,-9.419C8.49,-3.361,14.329,11.425,13.497,12.012Z" /></g></g></g></g></g></g></g></g></g></g><g id="i9"><g transform="translate(271.609,308.915)"><animateTransform repeatCount="indefinite" type="translate" attributeName="transform" dur="2.333s" begin="0s" calcMode="spline" values="271.609 308.915; 271.609 278.915; 271.609 308.915; 271.609 308.915" keyTimes="0; 0.335714; 0.992857; 1" keySplines="0.167 0.167 0.667 1; 0.333 0 0.667 1; 0 0 1 1" fill="freeze" /><g transform="rotate(0)"><animateTransform repeatCount="indefinite" type="rotate" attributeName="transform" dur="2.333s" begin="0s" calcMode="spline" values="0; 0; -6; -6; 0; 0" keyTimes="0; 0.328572; 0.571428; 0.785714; 0.964286; 1" keySplines="0 0 1 1; 0.333 0 0.667 1; 0.333 0 0.667 1; 0.333 0 0.667 1; 0 0 1 1" fill="freeze" /><g transform="scale(1,1) translate(-271.609,-361.915)"><g id="i22"><g transform="translate(267.293,280.579)"><g transform="rotate(0)"><animateTransform repeatCount="indefinite" type="rotate" attributeName="transform" dur="2.333s" begin="0s" calcMode="spline" values="0; 0; -4; 5; -4; 5; 0; 0" keyTimes="0; 0.271428; 0.392857; 0.528571; 0.678571; 0.807143; 0.935714; 1" keySplines="0 0 1 1; 0.333 0 0.667 1; 0.333 0 0.667 1; 0.333 0 0.667 1; 0.333 0 0.667 1; 0.333 0 0.667 1; 0 0 1 1" fill="freeze" /><g transform="scale(1,1) translate(-267.293,-280.579)"><g transform="matrix(1,0,0,1,0,0)" id="i29"><g id="i15" transform="matrix(1,0,0,1,243.032,225.079)"><g id="i11" fill="url(#i7)"><path fill-rule="evenodd" d="M17.359,0C17.359,9.586,9.586,17.358,0,17.358C-9.587,17.358,-17.358,9.586,-17.358,0C-17.358,-9.586,-9.587,-17.358,0,-17.358C9.586,-17.358,17.359,-9.586,17.359,0Z" /></g></g><g id="i16" transform="matrix(1,0,0,1,243.032,225.079)"><g id="i11" fill="#eefdff"><path fill-rule="evenodd" d="" /></g><path d="M12.458,0C12.458,6.88,6.88,12.458,0,12.458C-6.881,12.458,-12.459,6.88,-12.459,0C-12.459,-6.881,-6.881,-12.458,0,-12.458C6.88,-12.458,12.458,-6.881,12.458,0Z" fill="#eefdff" /></g><g id="i17" transform="matrix(1,0,0,1,243.031,225.079)"><g id="i11" fill="#0d293c"><path fill-rule="evenodd" d="M-10.464,0C-10.464,5.78,-5.778,10.464,0,10.464C5.78,10.464,10.465,5.78,10.465,0C10.465,-5.779,5.78,-10.464,0,-10.464C-5.778,-10.464,-10.464,-5.779,-10.464,0Z" /></g></g><g id="i18" transform="matrix(1,0,0,1,245.859,222.368)"><g id="i11" fill="#eefdff"><path fill-rule="evenodd" d="" /></g><path d="M3.877,-0.001C3.877,2.14,2.142,3.876,0.001,3.876C-2.141,3.876,-3.876,2.14,-3.876,-0.001C-3.876,-2.142,-2.141,-3.876,0.001,-3.876C2.142,-3.876,3.877,-2.142,3.877,-0.001Z" fill="#eefdff" /></g><g id="i19" transform="matrix(1,0,0,1,241.485,233.104)"><g id="i11" fill="#eefdff"><path fill-rule="evenodd" d="" /></g><path d="M1.546,0C1.546,0.854,0.854,1.546,-0.001,1.546C-0.855,1.546,-1.547,0.854,-1.547,0C-1.547,-0.854,-0.855,-1.546,-0.001,-1.546C0.854,-1.546,1.546,-0.854,1.546,0Z" fill="#eefdff" /></g><g id="i11" transform="matrix(1,0,0,1,236.876,230.784)"><g id="i11" fill="#eefdff"><path fill-rule="evenodd" d="" /></g><path d="M0.773,0C0.773,0.427,0.427,0.773,0,0.773C-0.427,0.773,-0.773,0.427,-0.773,0C-0.773,-0.427,-0.427,-0.773,0,-0.773C0.427,-0.773,0.773,-0.427,0.773,0Z" fill="#eefdff" /></g></g></g></g></g></g></g></g></g></g><g id="i9"><g transform="translate(271.609,308.915)"><animateTransform repeatCount="indefinite" type="translate" attributeName="transform" dur="2.333s" begin="0s" calcMode="spline" values="271.609 308.915; 271.609 278.915; 271.609 308.915; 271.609 308.915" keyTimes="0; 0.335714; 0.992857; 1" keySplines="0.167 0.167 0.667 1; 0.333 0 0.667 1; 0 0 1 1" fill="freeze" /><g transform="rotate(0)"><animateTransform repeatCount="indefinite" type="rotate" attributeName="transform" dur="2.333s" begin="0s" calcMode="spline" values="0; 0; -6; -6; 0; 0" keyTimes="0; 0.328572; 0.571428; 0.785714; 0.964286; 1" keySplines="0 0 1 1; 0.333 0 0.667 1; 0.333 0 0.667 1; 0.333 0 0.667 1; 0 0 1 1" fill="freeze" /><g transform="scale(1,1) translate(-271.609,-361.915)"><g id="i22"><g transform="translate(267.293,280.579)"><g transform="rotate(0)"><animateTransform repeatCount="indefinite" type="rotate" attributeName="transform" dur="2.333s" begin="0s" calcMode="spline" values="0; 0; -4; 5; -4; 5; 0; 0" keyTimes="0; 0.271428; 0.392857; 0.528571; 0.678571; 0.807143; 0.935714; 1" keySplines="0 0 1 1; 0.333 0 0.667 1; 0.333 0 0.667 1; 0.333 0 0.667 1; 0.333 0 0.667 1; 0.333 0 0.667 1; 0 0 1 1" fill="freeze" /><g transform="scale(1,1) translate(-267.293,-280.579)"><g transform="matrix(1,0,0,1,47,0)" id="i30"><g id="i15" transform="matrix(1,0,0,1,243.032,225.079)"><g id="i11" fill="url(#i8)"><path fill-rule="evenodd" d="M17.359,0C17.359,9.586,9.586,17.358,0,17.358C-9.587,17.358,-17.358,9.586,-17.358,0C-17.358,-9.586,-9.587,-17.358,0,-17.358C9.586,-17.358,17.359,-9.586,17.359,0Z" /></g></g><g id="i16" transform="matrix(1,0,0,1,243.032,225.079)"><g id="i11" fill="#eefdff"><path fill-rule="evenodd" d="" /></g><path d="M12.458,0C12.458,6.88,6.88,12.458,0,12.458C-6.881,12.458,-12.459,6.88,-12.459,0C-12.459,-6.881,-6.881,-12.458,0,-12.458C6.88,-12.458,12.458,-6.881,12.458,0Z" fill="#eefdff" /></g><g id="i17" transform="matrix(1,0,0,1,243.031,225.079)"><g id="i11" fill="#0d293c"><path fill-rule="evenodd" d="M-10.464,0C-10.464,5.78,-5.778,10.464,0,10.464C5.78,10.464,10.465,5.78,10.465,0C10.465,-5.779,5.78,-10.464,0,-10.464C-5.778,-10.464,-10.464,-5.779,-10.464,0Z" /></g></g><g id="i18" transform="matrix(1,0,0,1,245.859,222.368)"><g id="i11" fill="#eefdff"><path fill-rule="evenodd" d="" /></g><path d="M3.877,-0.001C3.877,2.14,2.142,3.876,0.001,3.876C-2.141,3.876,-3.876,2.14,-3.876,-0.001C-3.876,-2.142,-2.141,-3.876,0.001,-3.876C2.142,-3.876,3.877,-2.142,3.877,-0.001Z" fill="#eefdff" /></g><g id="i19" transform="matrix(1,0,0,1,241.485,233.104)"><g id="i11" fill="#eefdff"><path fill-rule="evenodd" d="" /></g><path d="M1.546,0C1.546,0.854,0.854,1.546,-0.001,1.546C-0.855,1.546,-1.547,0.854,-1.547,0C-1.547,-0.854,-0.855,-1.546,-0.001,-1.546C0.854,-1.546,1.546,-0.854,1.546,0Z" fill="#eefdff" /></g><g id="i11" transform="matrix(1,0,0,1,236.876,230.784)"><g id="i11" fill="#eefdff"><path fill-rule="evenodd" d="" /></g><path d="M0.773,0C0.773,0.427,0.427,0.773,0,0.773C-0.427,0.773,-0.773,0.427,-0.773,0C-0.773,-0.427,-0.427,-0.773,0,-0.773C0.427,-0.773,0.773,-0.427,0.773,0Z" fill="#eefdff" /></g></g></g></g></g></g></g></g></g></g><g id="i12"><g transform="translate(157.694,179.638)"><animateTransform repeatCount="indefinite" type="translate" attributeName="transform" dur="2.333s" begin="0s" calcMode="spline" values="157.694 179.638; 157.694 179.638; 157.694 196.638; 157.694 196.638" keyTimes="0; 0.421428; 0.721428; 1" keySplines="0 0 1 1; 0.167 0.167 0.667 1; 0 0 1 1" fill="freeze" /><g transform="rotate(-14)"><animateTransform repeatCount="indefinite" type="rotate" attributeName="transform" dur="2.333s" begin="0s" calcMode="spline" values="-14; -14; 0; -4; 0; -14; -14" keyTimes="0; 0.214286; 0.321429; 0.421428; 0.721429; 0.835714; 1" keySplines="0 0 1 1; 0.333 0 0.667 1; 0.333 0 0.667 1; 0.333 0 0.667 1; 0.333 0 0.667 1; 0 0 1 1" fill="freeze" /><g transform="scale(0,0)"><animateTransform repeatCount="indefinite" type="scale" attributeName="transform" dur="2.333s" begin="0s" calcMode="spline" values="0 0; 0 0; 0.87 0.87; 0.87 0.87; 0 0; 0 0" keyTimes="0; 0.214286; 0.321429; 0.721429; 0.835714; 1" keySplines="0 0 1 1; 0.333 0 0.667 1; 0.333 0 0.667 1; 0.333 0 0.667 1; 0 0 1 1" fill="freeze" /><g transform="translate(-172.52,-232.973)"><g transform="matrix(1,0,0,1,0,0)" id="i31"><g id="i18" transform="matrix(1,0,0,1,152.456,173.214)"><g id="i11" fill="#ffffff"><path d="M0.534,1.123C-2.437,1.26,-3.917,1.441,-3.907,1.665C-3.907,1.665,-3.581,8.746,-3.581,8.746C-3.573,8.938,-2.082,8.967,0.888,8.83C3.858,8.694,5.336,8.465,5.322,8.144C5.322,8.144,5.003,1.207,5.003,1.207C4.998,1.094,4.486,1.038,3.469,1.038C2.746,1.038,1.767,1.066,0.534,1.123ZM-0.642,-25.519C-3.581,-25.384,-5.044,-25.188,-5.032,-24.931C-5.032,-24.931,-2.978,-1.226,-2.978,-1.226C-2.971,-1.065,-1.819,-1.038,0.478,-1.143C2.774,-1.249,3.917,-1.398,3.909,-1.591C3.909,-1.591,3.78,-25.384,3.78,-25.384C3.774,-25.525,3.196,-25.595,2.046,-25.595C1.356,-25.595,0.46,-25.57,-0.642,-25.519Z" /></g></g><g id="i19" transform="matrix(1,0,0,1,154.41,157.955)"><path fill="#ffffff" d="M0.73,9.068C0.73,9.068,-1.169,-8.131,-0.225,-8.6C0.719,-9.069,1.168,0.326,0.73,9.068Z" /></g><g id="i11" transform="matrix(1,0,0,1,155.988,175.709)"><path fill="#ffffff" d="M1.034,0C1.034,0.571,0.57,1.033,-0.001,1.033C-0.571,1.033,-1.033,0.571,-1.033,0C-1.033,-0.571,-0.571,-1.033,-0.001,-1.033C0.57,-1.033,1.034,-0.571,1.034,0Z" /></g></g></g></g></g></g></g><g id="i12"><g transform="translate(157.694,179.638)"><animateTransform repeatCount="indefinite" type="translate" attributeName="transform" dur="2.333s" begin="0s" calcMode="spline" values="157.694 179.638; 157.694 179.638; 157.694 196.638; 157.694 196.638" keyTimes="0; 0.421428; 0.721428; 1" keySplines="0 0 1 1; 0.167 0.167 0.667 1; 0 0 1 1" fill="freeze" /><g transform="rotate(-14)"><animateTransform repeatCount="indefinite" type="rotate" attributeName="transform" dur="2.333s" begin="0s" calcMode="spline" values="-14; -14; 0; -4; 0; -14; -14" keyTimes="0; 0.214286; 0.321429; 0.421428; 0.721429; 0.835714; 1" keySplines="0 0 1 1; 0.333 0 0.667 1; 0.333 0 0.667 1; 0.333 0 0.667 1; 0.333 0 0.667 1; 0 0 1 1" fill="freeze" /><g transform="scale(0,0)"><animateTransform repeatCount="indefinite" type="scale" attributeName="transform" dur="2.333s" begin="0s" calcMode="spline" values="0 0; 0 0; 0.87 0.87; 0.87 0.87; 0 0; 0 0" keyTimes="0; 0.214286; 0.321429; 0.721429; 0.835714; 1" keySplines="0 0 1 1; 0.333 0 0.667 1; 0.333 0 0.667 1; 0.333 0 0.667 1; 0 0 1 1" fill="freeze" /><g transform="translate(-172.52,-232.973)"><g transform="matrix(1,0,0,1,0,0)" id="i32"><g id="i19" transform="matrix(1,0,0,1,133.85,170.639)"><g id="i11" fill="#ffffff"><path d="M-2.721,0.165C-2.857,-2.788,-2.017,-4.308,-0.203,-4.391C1.612,-4.475,2.586,-3.04,2.722,-0.085C2.858,2.869,2.017,4.388,0.204,4.472C0.154,4.474,0.107,4.476,0.058,4.476C-1.663,4.476,-2.589,3.04,-2.721,0.165ZM-0.597,-12.436C-4.001,-12.28,-6.657,-11.047,-8.561,-8.739C-10.466,-6.431,-11.33,-3.316,-11.15,0.601C-10.97,4.52,-9.824,7.54,-7.715,9.663C-5.606,11.787,-2.85,12.77,0.555,12.614C3.958,12.457,6.606,11.226,8.495,8.919C10.384,6.611,11.239,3.498,11.059,-0.421C10.878,-4.338,9.74,-7.36,7.648,-9.484C5.698,-11.463,3.181,-12.451,0.095,-12.451C-0.133,-12.451,-0.363,-12.446,-0.597,-12.436Z" /></g></g><g id="i11" transform="matrix(1,0,0,1,139.429,163.958)"><path fill="#ffffff" d="M4.061,4.218C4.067,3.259,3.953,0.525,1.967,-1.691C0.26,-3.596,-2.023,-4.218,-3.062,-4.097C-3.26,-4.074,-3.932,-3.958,-3.976,-3.678C-4.067,-3.096,-1.321,-2.69,0.731,-1.151C1.879,-0.291,3.242,1.247,4.061,4.218Z" /></g></g></g></g></g></g></g><g id="i12"><g transform="translate(157.694,179.638)"><animateTransform repeatCount="indefinite" type="translate" attributeName="transform" dur="2.333s" begin="0s" calcMode="spline" values="157.694 179.638; 157.694 179.638; 157.694 196.638; 157.694 196.638" keyTimes="0; 0.421428; 0.721428; 1" keySplines="0 0 1 1; 0.167 0.167 0.667 1; 0 0 1 1" fill="freeze" /><g transform="rotate(-14)"><animateTransform repeatCount="indefinite" type="rotate" attributeName="transform" dur="2.333s" begin="0s" calcMode="spline" values="-14; -14; 0; -4; 0; -14; -14" keyTimes="0; 0.214286; 0.321429; 0.421428; 0.721429; 0.835714; 1" keySplines="0 0 1 1; 0.333 0 0.667 1; 0.333 0 0.667 1; 0.333 0 0.667 1; 0.333 0 0.667 1; 0 0 1 1" fill="freeze" /><g transform="scale(0,0)"><animateTransform repeatCount="indefinite" type="scale" attributeName="transform" dur="2.333s" begin="0s" calcMode="spline" values="0 0; 0 0; 0.87 0.87; 0.87 0.87; 0 0; 0 0" keyTimes="0; 0.214286; 0.321429; 0.721429; 0.835714; 1" keySplines="0 0 1 1; 0.333 0 0.667 1; 0.333 0 0.667 1; 0.333 0 0.667 1; 0 0 1 1" fill="freeze" /><g transform="translate(-172.52,-232.973)"><g transform="matrix(1,0,0,1,0,0)" id="i33"><g id="i11" transform="matrix(1,0,0,1,114.676,166.778)"><path fill="#ffffff" fill-rule="evenodd" d="M-0.493,-17.016C-3.609,-16.873,-5.155,-16.559,-5.133,-16.078C-5.133,-16.078,-3.624,16.728,-3.624,16.728C-3.613,16.952,-2.324,17.021,0.248,16.936C3.523,16.785,5.155,16.565,5.141,16.277C5.141,16.277,3.625,-16.721,3.625,-16.721C3.615,-16.921,2.534,-17.021,0.385,-17.021C0.11,-17.021,-0.183,-17.019,-0.493,-17.016Z" /></g></g></g></g></g></g></g><g id="i12"><g transform="translate(157.694,179.638)"><animateTransform repeatCount="indefinite" type="translate" attributeName="transform" dur="2.333s" begin="0s" calcMode="spline" values="157.694 179.638; 157.694 179.638; 157.694 196.638; 157.694 196.638" keyTimes="0; 0.421428; 0.721428; 1" keySplines="0 0 1 1; 0.167 0.167 0.667 1; 0 0 1 1" fill="freeze" /><g transform="rotate(-14)"><animateTransform repeatCount="indefinite" type="rotate" attributeName="transform" dur="2.333s" begin="0s" calcMode="spline" values="-14; -14; 0; -4; 0; -14; -14" keyTimes="0; 0.214286; 0.321429; 0.421428; 0.721429; 0.835714; 1" keySplines="0 0 1 1; 0.333 0 0.667 1; 0.333 0 0.667 1; 0.333 0 0.667 1; 0.333 0 0.667 1; 0 0 1 1" fill="freeze" /><g transform="scale(0,0)"><animateTransform repeatCount="indefinite" type="scale" attributeName="transform" dur="2.333s" begin="0s" calcMode="spline" values="0 0; 0 0; 0.87 0.87; 0.87 0.87; 0 0; 0 0" keyTimes="0; 0.214286; 0.321429; 0.721429; 0.835714; 1" keySplines="0 0 1 1; 0.333 0 0.667 1; 0.333 0 0.667 1; 0.333 0 0.667 1; 0 0 1 1" fill="freeze" /><g transform="translate(-172.52,-232.973)"><g transform="matrix(1,0,0,1,0,0)" id="i34"><g id="i11" transform="matrix(1,0,0,1,101.574,167.381)"><path fill="#ffffff" fill-rule="evenodd" d="M-0.493,-17.016C-3.608,-16.873,-5.154,-16.56,-5.133,-16.079C-5.133,-16.079,-3.624,16.727,-3.624,16.727C-3.614,16.952,-2.324,17.021,0.248,16.935C3.523,16.785,5.154,16.565,5.141,16.275C5.141,16.275,3.623,-16.722,3.623,-16.722C3.615,-16.921,2.542,-17.021,0.405,-17.021C0.124,-17.021,-0.175,-17.019,-0.493,-17.016Z" /></g></g></g></g></g></g></g><g id="i12"><g transform="translate(157.694,179.638)"><animateTransform repeatCount="indefinite" type="translate" attributeName="transform" dur="2.333s" begin="0s" calcMode="spline" values="157.694 179.638; 157.694 179.638; 157.694 196.638; 157.694 196.638" keyTimes="0; 0.421428; 0.721428; 1" keySplines="0 0 1 1; 0.167 0.167 0.667 1; 0 0 1 1" fill="freeze" /><g transform="rotate(-14)"><animateTransform repeatCount="indefinite" type="rotate" attributeName="transform" dur="2.333s" begin="0s" calcMode="spline" values="-14; -14; 0; -4; 0; -14; -14" keyTimes="0; 0.214286; 0.321429; 0.421428; 0.721429; 0.835714; 1" keySplines="0 0 1 1; 0.333 0 0.667 1; 0.333 0 0.667 1; 0.333 0 0.667 1; 0.333 0 0.667 1; 0 0 1 1" fill="freeze" /><g transform="scale(0,0)"><animateTransform repeatCount="indefinite" type="scale" attributeName="transform" dur="2.333s" begin="0s" calcMode="spline" values="0 0; 0 0; 0.87 0.87; 0.87 0.87; 0 0; 0 0" keyTimes="0; 0.214286; 0.321429; 0.721429; 0.835714; 1" keySplines="0 0 1 1; 0.333 0 0.667 1; 0.333 0 0.667 1; 0.333 0 0.667 1; 0 0 1 1" fill="freeze" /><g transform="translate(-172.52,-232.973)"><g transform="matrix(1,0,0,1,0,0)" id="i35"><g id="i17" transform="matrix(1,0,0,1,83.958,169.657)"><g id="i11" fill="#ffffff"><path d="M-2.1,0.418C-2.134,-0.287,-1.941,-0.835,-1.524,-1.225C-1.108,-1.614,-0.595,-1.823,0.016,-1.851C1.332,-1.912,2.022,-1.267,2.084,0.082C2.134,1.173,1.629,1.744,0.569,1.793C0.569,1.793,-2.032,1.912,-2.032,1.912C-2.032,1.912,-2.1,0.418,-2.1,0.418ZM-0.321,-9.174C-3.533,-9.025,-6.137,-7.73,-8.132,-5.29C-10.128,-2.849,-11.037,0.291,-10.861,4.128C-10.685,7.967,-9.456,10.919,-7.172,12.986C-4.888,15.053,-2.157,16.014,1.023,15.868C4.202,15.721,6.776,15.008,8.745,13.727C9.341,13.41,9.619,12.778,9.575,11.829C9.531,10.883,9.093,9.736,8.259,8.391C7.979,7.921,7.824,7.703,7.794,7.736C5.818,8.858,3.705,9.469,1.457,9.572C0.43,9.619,-0.357,9.471,-0.904,9.125C-1.451,8.781,-1.747,8.126,-1.791,7.163C-1.791,7.163,1.533,7.01,1.533,7.01C7.506,6.735,10.374,3.997,10.134,-1.206C10.026,-3.55,9.06,-5.501,7.235,-7.058C5.566,-8.481,3.32,-9.193,0.497,-9.193C0.229,-9.193,-0.043,-9.187,-0.321,-9.174Z" /></g></g><g id="i18" transform="matrix(1,0,0,1,89.33,164.112)"><path fill="#ffffff" d="M3.578,2.768C3.116,0.16,0.139,-2.768,-1.719,-2.31C-3.578,-1.852,0.483,-0.442,1.938,0.816C3.394,2.075,3.578,2.768,3.578,2.768Z" /></g><g id="i19" transform="matrix(1,0,0,1,78.022,181.069)"><path fill="#ffffff" d="M-1.428,0.666C0.731,3.06,3.815,3.521,3.858,3.419C3.904,3.312,0.482,2.854,-1.319,0.106C-2.166,-1.187,-3.005,-3.521,-3.563,-3.521C-3.576,-3.521,-3.598,-3.521,-3.618,-3.506C-3.904,-3.298,-2.81,-0.867,-1.428,0.666Z" /></g></g></g></g></g></g></g><g id="i12"><g transform="translate(157.694,179.638)"><animateTransform repeatCount="indefinite" type="translate" attributeName="transform" dur="2.333s" begin="0s" calcMode="spline" values="157.694 179.638; 157.694 179.638; 157.694 196.638; 157.694 196.638" keyTimes="0; 0.421428; 0.721428; 1" keySplines="0 0 1 1; 0.167 0.167 0.667 1; 0 0 1 1" fill="freeze" /><g transform="rotate(-14)"><animateTransform repeatCount="indefinite" type="rotate" attributeName="transform" dur="2.333s" begin="0s" calcMode="spline" values="-14; -14; 0; -4; 0; -14; -14" keyTimes="0; 0.214286; 0.321429; 0.421428; 0.721429; 0.835714; 1" keySplines="0 0 1 1; 0.333 0 0.667 1; 0.333 0 0.667 1; 0.333 0 0.667 1; 0.333 0 0.667 1; 0 0 1 1" fill="freeze" /><g transform="scale(0,0)"><animateTransform repeatCount="indefinite" type="scale" attributeName="transform" dur="2.333s" begin="0s" calcMode="spline" values="0 0; 0 0; 0.87 0.87; 0.87 0.87; 0 0; 0 0" keyTimes="0; 0.214286; 0.321429; 0.721429; 0.835714; 1" keySplines="0 0 1 1; 0.333 0 0.667 1; 0.333 0 0.667 1; 0.333 0 0.667 1; 0 0 1 1" fill="freeze" /><g transform="translate(-172.52,-232.973)"><g transform="matrix(1,0,0,1,0,0)" id="i36"><g id="i19" transform="matrix(1,0,0,1,56.099,169.54)"><path fill="#ffffff" fill-rule="evenodd" d="M7.463,-17.305C6.659,-17.268,5.842,-17.198,5.01,-17.097C3.413,-16.83,2.625,-16.471,2.646,-16.021C2.646,-16.021,3.161,-4.798,3.161,-4.798C3.161,-4.798,-3.583,-4.488,-3.583,-4.488C-3.583,-4.488,-4.104,-15.809,-4.104,-15.809C-4.135,-16.483,-5.772,-16.746,-9.016,-16.596C-12.26,-16.448,-13.866,-16.035,-13.835,-15.361C-13.835,-15.361,-12.365,16.577,-12.365,16.577C-12.341,17.123,-10.708,17.323,-7.464,17.174C-4.22,17.024,-2.61,16.677,-2.635,16.131C-2.635,16.131,-3.145,5.051,-3.145,5.051C-3.145,5.051,3.6,4.74,3.6,4.74C3.6,4.74,4.109,15.82,4.109,15.82C4.135,16.366,5.769,16.564,9.012,16.415C12.256,16.266,13.865,15.919,13.84,15.373C13.84,15.373,12.378,-16.468,12.378,-16.468C12.356,-16.918,11.538,-17.203,9.923,-17.322C9.923,-17.322,7.463,-17.305,7.463,-17.305Z" /></g><g id="i11" transform="matrix(1,0,0,1,65.969,167.441)"><path fill="#ffffff" d="M2.718,13.806C2.03,14.752,1.937,-9.588,1.497,-11.967C1.497,-11.967,1.497,-12.124,1.497,-12.124C1.488,-12.28,1.478,-12.591,1.469,-13.216C1.467,-13.354,1.34,-13.831,1.229,-13.932C0.327,-14.748,-3.637,-14.337,-1.948,-14.557C-0.455,-14.752,1.268,-14.607,1.707,-14.448C1.899,-14.379,1.91,-14.006,1.956,-13.868C2.819,-9.046,3.637,12.556,2.718,13.806Z" /></g></g></g></g></g></g></g></svg>